<svg id="svg" version="1.1" xmlns="http://www.w3.org/2000/svg" xmlns:xlink="http://www.w3.org/1999/xlink" width="400" height="400" viewBox="0, 0, 400,400"><g id="svgg"><path id="path0" d="M42.576 75.768 C 41.813 76.326,41.800 77.542,41.800 149.991 L 41.800 223.646 42.800 224.414 C 43.763 225.154,44.864 225.185,72.600 225.247 C 88.440 225.283,100.038 225.442,98.374 225.602 C 92.928 226.124,92.379 226.985,92.125 235.400 C 91.888 243.273,92.183 242.655,88.504 242.975 C 80.389 243.682,77.795 245.609,76.833 251.645 C 76.609 253.050,76.204 255.460,75.934 257.000 C 75.664 258.540,75.381 263.248,75.306 267.461 L 75.168 275.123 68.084 275.289 C 58.240 275.520,58.823 274.927,58.503 285.044 L 58.287 291.888 52.444 292.096 C 41.940 292.470,42.199 292.057,42.203 308.400 C 42.207 323.527,42.267 323.695,47.900 324.290 C 49.055 324.412,50.000 324.667,50.000 324.856 C 50.000 325.045,66.253 325.200,86.187 325.200 L 122.373 325.200 123.787 323.787 L 125.200 322.373 125.200 315.387 L 125.200 308.400 130.800 308.400 C 134.267 308.400,136.400 308.248,136.400 308.000 C 136.400 307.780,136.778 307.600,137.240 307.600 C 140.684 307.600,141.208 306.324,141.465 297.322 L 141.639 291.243 143.319 291.040 C 144.244 290.928,146.350 290.733,148.000 290.607 C 155.647 290.020,156.901 288.498,157.481 279.100 C 157.613 276.955,157.874 275.200,158.060 275.200 C 158.247 275.200,158.400 271.420,158.400 266.800 L 158.400 258.400 165.454 258.400 C 172.465 258.400,172.514 258.394,173.435 257.400 C 173.945 256.850,174.550 256.400,174.781 256.400 C 175.058 256.400,175.200 253.898,175.200 249.021 L 175.200 241.641 180.900 241.473 C 189.168 241.228,190.327 240.826,191.020 237.953 C 191.643 235.376,191.477 76.615,190.851 75.861 C 190.073 74.924,43.857 74.831,42.576 75.768 M209.149 75.861 C 208.688 76.417,208.600 88.325,208.600 150.097 L 208.600 223.671 209.544 224.435 C 210.453 225.171,211.566 225.202,238.744 225.257 C 254.285 225.288,265.830 225.435,264.400 225.584 C 259.210 226.125,258.579 227.756,258.420 241.034 L 258.400 242.667 254.207 243.125 C 245.802 244.043,244.207 245.672,242.973 254.600 C 241.930 262.144,241.665 265.240,241.632 270.260 L 241.600 275.121 234.700 275.268 C 224.995 275.476,225.523 274.939,225.290 284.844 L 225.124 291.888 219.062 292.094 C 212.189 292.328,210.269 292.850,209.563 294.681 C 208.402 297.689,208.417 318.676,209.582 321.845 C 210.096 323.244,211.282 323.917,213.851 324.269 C 214.813 324.401,215.600 324.664,215.600 324.854 C 215.600 325.708,289.141 325.259,290.000 324.400 C 290.440 323.960,290.800 323.420,290.800 323.200 C 290.800 322.980,290.980 322.800,291.200 322.800 C 291.452 322.800,291.600 320.133,291.600 315.600 L 291.600 308.400 297.400 308.400 C 300.590 308.400,303.200 308.243,303.200 308.051 C 303.200 307.859,303.897 307.591,304.748 307.455 C 306.584 307.161,307.158 306.567,307.472 304.636 C 307.600 303.846,307.861 303.200,308.052 303.200 C 308.244 303.200,308.400 300.449,308.400 297.087 L 308.400 290.974 312.755 290.511 C 321.435 289.588,323.187 287.769,323.830 279.012 C 324.036 276.197,324.252 275.200,324.655 275.200 C 325.098 275.200,325.200 273.625,325.200 266.800 L 325.200 258.400 332.186 258.400 L 339.172 258.400 340.386 257.213 L 341.600 256.027 341.600 248.813 L 341.600 241.600 346.380 241.600 C 354.228 241.600,357.048 240.497,357.483 237.259 C 357.605 236.346,357.863 235.600,358.056 235.600 C 358.897 235.600,358.267 76.385,357.424 75.768 C 356.143 74.831,209.927 74.924,209.149 75.861 " stroke="none" fill="#040404" fill-rule="evenodd"></path><path id="path1" d="" stroke="none" fill="blue" fill-rule="evenodd"></path><path id="path2" d="" stroke="none" fill="blue" fill-rule="evenodd"></path><path id="path3" d="" stroke="none" fill="blue" fill-rule="evenodd"></path><path id="path4" d="" stroke="none" fill="blue" fill-rule="evenodd"></path></g></svg>